<svg width="72" height="72" viewBox="0 0 72 72" fill="none" xmlns="http://www.w3.org/2000/svg">
<path d="M4 32.4444C4 19.0364 4 12.3307 8.16711 8.16711C12.3342 4.00356 19.0364 4 32.4444 4H39.5556C52.9636 4 59.6693 4 63.8329 8.16711C67.9964 12.3342 68 19.0364 68 32.4444V39.5556C68 52.9636 68 59.6693 63.8329 63.8329C59.6658 67.9964 52.9636 68 39.5556 68H32.4444C19.0364 68 12.3307 68 8.16711 63.8329C4.00356 59.6658 4 52.9636 4 39.5556V32.4444Z" stroke="#AEDFDC" stroke-width="7.11111"/>
<path d="M51.9993 25.3333C54.9449 25.3333 57.3327 22.9455 57.3327 20C57.3327 17.0544 54.9449 14.6666 51.9993 14.6666C49.0538 14.6666 46.666 17.0544 46.666 20C46.666 22.9455 49.0538 25.3333 51.9993 25.3333Z" fill="#AEDFDC"/>
<path d="M36.0007 46.6667C41.8917 46.6667 46.6673 41.8911 46.6673 36C46.6673 30.109 41.8917 25.3334 36.0007 25.3334C30.1096 25.3334 25.334 30.109 25.334 36C25.334 41.8911 30.1096 46.6667 36.0007 46.6667Z" stroke="#AEDFDC" stroke-width="7.11111"/>
</svg>
