<svg width="405" height="451" viewBox="0 0 405 451" fill="none" xmlns="http://www.w3.org/2000/svg">
<path fill-rule="evenodd" clip-rule="evenodd" d="M236.485 0.886035C223.972 2.97404 211.73 10.333 204.503 20.112C201.994 23.507 199.473 27.298 198.901 28.535C198.33 29.772 197.527 30.785 197.118 30.785C196.709 30.785 195.036 28.423 193.401 25.535C178.648 -0.516966 141.134 -7.21496 120.111 12.449C110.862 21.101 107.183 31.466 107.183 48.876C107.183 81.619 120.838 103.567 159.183 132.459C182.182 149.788 189.96 158.023 194.005 169.329C194.98 172.055 196.386 174.285 197.128 174.285C197.934 174.285 199.161 171.792 200.171 168.104C201.101 164.704 202.686 160.654 203.693 159.104C206.563 154.684 217.987 143.172 224.116 138.524C249.386 119.361 263.894 106.071 271.066 95.515C275.913 88.381 279.876 79.294 282.287 69.785C284.877 59.573 285.366 40.395 283.255 31.785C279.168 15.109 268.612 4.68004 252.327 1.22804C244.95 -0.335964 243.938 -0.356965 236.485 0.886035ZM139.733 6.32703C131.863 8.31404 126.402 11.635 120.853 17.808C114.61 24.75 112.111 31.822 111.444 44.425C110.496 62.328 115.092 79.769 124.485 93.921C130.358 102.769 142.506 114.436 158.183 126.286C166.158 132.314 175.496 139.629 178.933 142.541C190.563 152.394 186.188 146.706 166.813 126.785C144.617 103.964 137.03 94.23 130.613 80.34C122.691 63.194 120.368 43.459 125.049 33.071C128.127 26.24 135.265 19.646 142.521 16.931C154.761 12.352 171.772 14.991 183.273 23.254C186.081 25.272 188.564 26.737 188.791 26.51C189.017 26.284 187.649 24.064 185.751 21.577C176.192 9.05903 155.745 2.28303 139.733 6.32703ZM232.917 5.81804C224.094 8.02604 213.103 15.401 207.732 22.718C205.78 25.377 204.183 27.845 204.183 28.201C204.183 28.558 206.546 27.085 209.433 24.928C220.268 16.833 229.34 13.574 240.911 13.619C253.627 13.669 263.617 20.084 269.063 31.699C271.369 36.615 271.683 38.545 271.683 47.785C271.683 59.712 269.854 66.608 263.091 80.175C256.667 93.064 252.007 99.01 223.621 130.535C220.525 133.973 218.373 136.78 218.838 136.774C219.303 136.767 225.533 132.223 232.683 126.674C270.077 97.656 280.911 79.116 279.95 45.785C279.487 29.724 277.594 23.683 270.582 15.884C263.839 8.38403 256.999 5.41904 245.739 5.11804C240.758 4.98504 234.989 5.30004 232.917 5.81804ZM227.67 19.584C219.755 22.321 213.511 26.451 205.013 34.57L197.127 42.104L189.682 34.512C184.121 28.842 180.283 25.955 174.512 23.103C167.11 19.445 166.367 19.285 156.735 19.285C148.566 19.285 145.84 19.683 142.183 21.409C127.903 28.15 123.351 42.698 128.986 63.592C134.042 82.34 142.355 95.073 164.928 118.646C185.959 140.608 189.318 144.611 193.675 152.902C195.665 156.688 197.649 159.785 198.086 159.785C198.522 159.785 199.735 157.883 200.781 155.558C205.281 145.559 211.08 138.062 234.709 111.702C248.877 95.896 254.49 88.242 260.115 77.06C272.907 51.628 270.046 28.876 252.988 20.375C246.595 17.189 235.589 16.845 227.67 19.584ZM165.183 185.811C104.64 190.116 64.4984 200.312 46.8144 215.879C39.3414 222.457 38.6564 224.385 38.8524 238.305C39.4254 278.942 51.4864 321.008 70.6844 349.324C74.2704 354.613 76.9484 359.356 76.6354 359.863C76.3214 360.37 75.0104 360.785 73.7204 360.785C67.9224 360.785 41.5864 366.369 30.8524 369.874C14.6204 375.176 5.01542 381.266 1.19042 388.685C-0.588581 392.134 -0.33358 399.885 1.68742 403.793C12.8214 425.323 69.5744 442.646 149.683 448.967C173.417 450.839 235.216 450.537 258.183 448.436C347.901 440.229 402.051 420.238 402.156 395.285C402.201 384.646 389.494 374.995 366.683 368.343C358.178 365.862 325.346 359.785 320.452 359.785C317.428 359.785 317.591 357.919 320.967 353.875C323.195 351.206 325.193 350.174 330.98 348.704C334.957 347.695 341.917 345.129 346.447 343.003C369.159 332.344 395.04 307.161 402.493 288.467C405.528 280.853 405.44 267.021 402.314 260.613C399.319 254.47 394.265 249.381 387.87 246.067C383.507 243.806 381.412 243.379 374.683 243.379C367.981 243.379 365.872 243.806 361.683 246.007C358.933 247.452 355.193 250.018 353.371 251.71C351.55 253.401 349.912 254.785 349.732 254.785C349.553 254.785 349.222 248.372 348.998 240.535C348.531 224.174 347.904 222.356 340.467 215.793C328.212 204.978 299.922 195.322 265.683 190.267C237.091 186.045 190.772 183.992 165.183 185.811ZM165.485 189.857C91.2474 193.898 37.6694 213.328 43.3014 234.166C43.7304 235.75 45.0784 238.109 46.2994 239.408L48.5184 241.77L54.1644 236.384C66.5294 224.59 83.5454 216.588 108.683 210.745C159.014 199.045 241.782 201.034 293.183 215.179C312.288 220.436 332.605 230.069 338.63 236.726C341.037 239.386 341.618 239.321 343.022 236.238C345.782 230.18 343.786 224.169 337.118 218.461C313.475 198.224 239.197 185.845 165.485 189.857ZM340.683 246.316C328.138 257.155 297.484 267.314 262.683 272.166C236.37 275.834 228.426 276.284 191.683 276.188C160.042 276.104 152.148 275.774 137.183 273.905C94.5624 268.581 63.6024 259.384 47.8654 247.372C42.2674 243.099 42.4444 242.344 44.7194 260.815C55.5654 348.895 103.077 398.87 184.394 407.727C196.947 409.095 217.267 409.074 228.683 407.682C271.304 402.485 304.346 378.737 324.294 338.963C332.95 321.704 340.509 295.082 343.084 272.785C344.27 262.523 345.567 242.77 345.052 242.823C344.849 242.843 342.883 244.415 340.683 246.316ZM367.092 248.339C360.952 250.23 353.862 256.655 350.835 263.071C348.414 268.202 346.523 277.826 347.952 277.742C348.354 277.719 350.387 275.49 352.47 272.788C361.47 261.116 372.703 254.481 379.608 256.76C383.547 258.06 388.84 263.569 389.791 267.358C390.924 271.872 389.576 279.349 386.408 286.118C382.957 293.493 373.507 306.38 367.51 311.888C358.046 320.582 345.046 328.775 336.144 331.656C333.181 332.614 332.082 333.86 329.403 339.293C325.673 346.857 325.908 347 335.91 343.237C354.777 336.141 373.756 322.025 387.336 304.989C403.29 284.975 405.217 267.507 392.833 255.143C388.995 251.31 386.3 249.591 382.251 248.393C375.77 246.474 373.174 246.465 367.092 248.339ZM367.143 264.141C362.804 267.351 355.218 275.551 348.39 284.413C345.969 287.554 344.512 291.378 342.295 300.413C340.693 306.942 338.445 315.406 337.3 319.219C336.155 323.033 335.435 326.37 335.699 326.634C336.882 327.817 353.41 318.232 360.35 312.339C374.074 300.684 386.183 281.736 386.183 271.913C386.183 269.581 385.289 266.751 383.899 264.683C381.872 261.667 381.057 261.257 376.649 261.033C372.371 260.817 371.054 261.247 367.143 264.141ZM313.279 365.869C312.044 367.539 308.139 371.974 304.601 375.725L298.167 382.545L300.925 384.29C310.416 390.296 308.7 398.731 296.956 403.791C253.136 422.671 123.274 419.712 101.675 399.342C97.4124 395.322 97.1894 392.12 100.864 387.752L103.545 384.565L99.1144 380.955C96.6774 378.97 91.4634 374.259 87.5284 370.488L80.3734 363.631L64.8094 366.248C39.5974 370.487 20.1894 376.729 11.4174 383.42C0.84942 391.481 2.01642 402.205 14.4674 411.459C36.7944 428.054 82.3824 439.267 150.683 444.963C173.115 446.833 236.208 446.508 259.183 444.403C327.711 438.125 375.928 424.594 392.356 407.031C399.758 399.118 399.933 392.452 392.919 385.645C383.684 376.683 360.184 369.173 327.683 364.798C323.283 364.206 318.747 363.521 317.604 363.277C316.142 362.965 314.857 363.735 313.279 365.869Z" fill="#4A1805"/>
</svg>
